# xmcd CD database file
#
# Track frame offsets:
#	150
#	46013
#	87670
#	119445
#	178893
#
# Disc length: 2931 seconds
#
# Revision: 0
# Processed by: cddbd v1.5.1PL0 Copyright (c) Steve Scherf et al.
# Submitted via: CDex 1.51
#
DISCID=3f0b7105
DTITLE=Vienna Art Orchestra - Inside Out
DYEAR=1987
DGENRE=Jazz
TTITLE0=The Opener Is Bizarre
TTITLE1=Melancholie
TTITLE2=A Light Poem In a Dark Soul
TTITLE3=Off Minor
TTITLE4=When Blue Serpents Refuse To Dream
EXTD=YEAR: 1987
EXTT0=
EXTT1=
EXTT2=
EXTT3=
EXTT4=
PLAYORDER=
